<svg viewBox="0 0 24 24" fill="none" xmlns="http://www.w3.org/2000/svg">
<path d="M0.263672 0.263916H23.7357V23.7361H0.263672V0.263916Z" fill="#F0DB4F"/>
<path d="M21.8155 18.1382C21.6436 17.0673 20.9453 16.1679 18.877 15.3292C18.1585 14.999 17.3575 14.7626 17.1188 14.2181C17.0341 13.9012 17.0228 13.7227 17.0765 13.5309C17.2304 12.9084 17.9735 12.7143 18.5624 12.8928C18.9417 13.02 19.3008 13.3123 19.5173 13.7786C20.5302 13.1227 20.5282 13.127 21.2354 12.6763C20.9765 12.2748 20.8383 12.0896 20.6688 11.9178C20.0596 11.2374 19.2295 10.887 17.902 10.9138L17.2105 11.0032C16.5479 11.1707 15.9164 11.5185 15.5461 11.9848C14.435 13.2455 14.7518 15.452 16.1039 16.3601C17.4359 17.3598 19.3927 17.5873 19.6426 18.5222C19.8858 19.6667 18.8015 20.0372 17.7237 19.9055C16.9295 19.7403 16.4877 19.3367 16.0102 18.6026C15.1312 19.1113 15.1312 19.1113 14.2274 19.631C14.4417 20.0996 14.6669 20.3117 15.0262 20.7176C16.7264 22.4422 20.9812 22.3575 21.7443 19.7471C21.7752 19.6575 21.9807 19.0597 21.8155 18.1382ZM13.0246 11.052H10.8292L10.8202 16.728C10.8202 17.9351 10.8826 19.0417 10.6863 19.3809C10.3651 20.048 9.53278 19.9653 9.15347 19.836C8.76741 19.6462 8.57109 19.3764 8.34366 18.995C8.28122 18.8855 8.23434 18.8008 8.21859 18.7942L6.43359 19.8873C6.73041 20.4965 7.16766 21.0253 7.72772 21.3688C8.56434 21.8709 9.68878 22.0248 10.8648 21.7548C11.6302 21.5319 12.2905 21.0701 12.6363 20.3672C13.1362 19.4456 13.0289 18.3302 13.0244 17.0964C13.0357 15.0836 13.0246 13.0712 13.0246 11.052Z" fill="#323330"/>
</svg>
